<svg xmlns="http://www.w3.org/2000/svg" version="1.1" xmlns:xlink="http://www.w3.org/1999/xlink" xmlns:svgjs="http://svgjs.dev/svgjs" width="2000" height="1500" viewBox="0 0 2000 1500"><rect width="2000" height="1500" fill="#ffffff"></rect><g transform="matrix(0.75,0,0,0.75,249.67638483964993,0.05154664723022506)"><svg viewBox="0 0 343 343" data-background-color="#ffffff" preserveAspectRatio="xMidYMid meet" height="1999" width="2000" xmlns="http://www.w3.org/2000/svg" xmlns:xlink="http://www.w3.org/1999/xlink"><defs></defs><g id="tight-bounds" transform="matrix(1,0,0,1,0.0740000000000407,0.07400000000001228)"><svg viewBox="0 0 342.85155851775386 342.85155851775386" height="342.85155851775386" width="342.85155851775386"><g><svg></svg></g><g><svg viewBox="0 0 342.85155851775386 342.85155851775386" height="342.85155851775386" width="342.85155851775386"><g><path d="M0 171.426c0-94.676 76.75-171.426 171.426-171.426 94.676 0 171.426 76.75 171.426 171.426 0 94.676-76.75 171.426-171.426 171.426-94.676 0-171.426-76.75-171.426-171.426zM171.426 340.843c93.566 0 169.417-75.85 169.417-169.417 0-93.566-75.85-169.417-169.417-169.417-93.566 0-169.417 75.85-169.417 169.417 0 93.566 75.85 169.417 169.417 169.417z" data-fill-palette-color="tertiary" fill="#1c4b82" stroke="transparent"></path><ellipse rx="164.56874808852186" ry="164.56874808852186" cx="171.42577925887693" cy="171.42577925887693" fill="#1c4b82" stroke="transparent" stroke-width="0" fill-opacity="1" data-fill-palette-color="tertiary"></ellipse></g><g transform="matrix(1,0,0,1,64.84655864529837,129.7532985572407)"><svg viewBox="0 0 213.1584412271571 83.34496140327246" height="83.34496140327246" width="213.1584412271571"><g><svg viewBox="0 0 418.5272324450847 163.64416925521186" height="83.34496140327246" width="213.1584412271571"><g><rect width="3.9446337832391527" height="79.33545108610124" x="191.09789098641835" y="42.15435908455531" fill="#1c4b82" opacity="1" stroke-width="0" stroke="transparent" fill-opacity="1" class="rect-o-0" data-fill-palette-color="primary" rx="1%" id="o-0" data-palette-color="#1c4b82"></rect></g><g transform="matrix(1,0,0,1,205.36879121792754,42.35171095292869)"><svg viewBox="0 0 213.1584412271571 78.94074734935448" height="78.94074734935448" width="213.1584412271571"><g><svg viewBox="0 0 213.1584412271571 78.94074734935448" height="78.94074734935448" width="213.1584412271571"><g><svg viewBox="0 0 213.1584412271571 43.741280131271424" height="43.741280131271424" width="213.1584412271571"><g transform="matrix(1,0,0,1,0,0)"><svg width="213.1584412271571" viewBox="1.7999999523162842 -32.45000076293945 182.489990234375 37.45000076293945" height="43.741280131271424" data-palette-color="#ffffff"><path d="M26.35 1.35Q21.45-6.45 16.48-13.85 11.5-21.25 11.5-21.15L11.5-21.15 11.05-21.15 11-5.4Q11-4.1 11.38-3.63 11.75-3.15 12.7-3.15L12.7-3.15 14.9-3.25 15.15-2.95 14.65 0.2Q13.95 0.15 12.05 0.08 10.15 0 8.25 0L8.25 0Q6.6 0 4.7 0.18 2.8 0.35 2.25 0.4L2.25 0.4 2.6-2.9Q4.15-3.1 4.85-3.83 5.55-4.55 5.6-6.05L5.6-6.05 6.2-25.9Q6.2-27.5 5.4-28.15 4.6-28.8 2.15-29.05L2.15-29.05 1.8-29.5 2.15-32.35Q2.7-32.3 4.5-32.2 6.3-32.1 7.85-32.1L7.85-32.1Q9.15-32.1 10.63-32.18 12.1-32.25 12.55-32.3L12.55-32.3Q16.65-25.6 21.38-18.5 26.1-11.4 26.1-11.5L26.1-11.5 26.6-11.5 26.5-26.75Q26.45-27.9 26.08-28.4 25.7-28.9 24.85-28.9L24.85-28.9 23.1-28.85 22.95-29.2 23.3-32.3Q24-32.25 25.88-32.18 27.75-32.1 29.65-32.1L29.65-32.1Q31.15-32.1 33.02-32.2 34.9-32.3 35.5-32.35L35.5-32.35 35.25-29.05Q33.55-28.8 32.83-28.1 32.1-27.4 32.05-25.9L32.05-25.9 31.4 0.7 26.35 1.35ZM41.05 5Q38.95 5 38.1 3.88 37.25 2.75 37.1 0L37.1 0 37.7-0.7Q39.6-0.05 42-0.05L42-0.05Q45.2-0.05 47.27-1.43 49.35-2.8 49.35-4.9L49.35-4.9Q49.35-7 47.55-7.98 45.75-8.95 41.9-9L41.9-9 41.45-9.45 41.1-12.45 44.35-13.2Q46.05-13.95 47.1-15.25 48.15-16.55 48.15-18L48.15-18Q48.15-19.25 47.27-20.03 46.4-20.8 45-20.8L45-20.8Q43.75-20.8 42.27-20.13 40.8-19.45 39.55-18.3L39.55-18.3 38.9-18.3 37.95-21.75Q39.35-22.9 42.12-24.2 44.9-25.5 47.15-25.5L47.15-25.5Q50.45-25.5 52.47-23.9 54.5-22.3 54.5-19.65L54.5-19.65Q54.5-17.6 53-15.75 51.5-13.9 49-12.8L49-12.8 49-12.45Q52.4-11.55 54.15-9.88 55.9-8.2 55.9-5.85L55.9-5.85Q55.9-3.3 53.7-0.75 51.5 1.8 48.05 3.4 44.6 5 41.05 5L41.05 5ZM64.7 0.55L65.05-2.8Q67.05-3.05 67.97-3.53 68.9-4 69.22-4.88 69.55-5.75 69.55-7.55L69.55-7.55 69.55-9.1Q69.55-10.45 69.25-11.55 68.95-12.65 68.09-14.25L68.09-14.25 63.2-23.75Q61.95-26.3 60.85-27.35 59.75-28.4 57.5-28.8L57.5-28.8 57.4-29.05 57.75-32.2Q58.45-32.2 60.37-32.13 62.3-32.05 64.15-32.05L64.15-32.05Q65.75-32.05 68.5-32.23 71.25-32.4 72.15-32.45L72.15-32.45 72.34-32 72.09-29.2Q70.4-29.1 69.72-28.75 69.05-28.4 69.05-27.65L69.05-27.65Q69.05-26.7 72.45-19.4L72.45-19.4Q73.45-17.1 73.4-17.2L73.4-17.2 73.84-17.2 77.9-25.6Q78.65-27.1 78.65-27.95L78.65-27.95Q78.65-28.5 78.02-28.78 77.4-29.05 76.05-29.15L76.05-29.15 75.95-29.4 76.3-32.25 78.7-32.15Q81.4-32.05 82.9-32.05L82.9-32.05Q84.3-32.05 85.9-32.13 87.5-32.2 87.95-32.25L87.95-32.25 88.15-31.9 87.8-28.9Q85.8-28.25 84.62-26.95 83.45-25.65 81.7-22.5L81.7-22.5 76.95-13.55Q76.25-12.3 76.12-11 76-9.7 76-6.25L76-6.25Q76-4.6 76.5-3.93 77-3.25 78.3-3.25L78.3-3.25Q79.2-3.25 79.87-3.3 80.55-3.35 80.8-3.4L80.8-3.4 81-3.15 80.55 0.2Q79.65 0.15 77.2 0.08 74.75 0 72.4 0L72.4 0Q70.59 0 68.05 0.23 65.5 0.45 64.7 0.55L64.7 0.55ZM105.39 0.8Q101.64-11.1 97.59-22.6L97.59-22.6 97.19-22.6Q97.19-22.05 96.99-18.95 96.79-15.85 96.64-13.8L96.64-13.8Q96.04-5.4 96.04-4.75L96.04-4.75Q96.04-3.15 97.64-3.15L97.64-3.15 99.34-3.2 99.64-2.95 99.09 0.2Q94.89 0 93.24 0L93.24 0Q92.09 0 90.47 0.15 88.84 0.3 88.29 0.4L88.29 0.4 88.59-2.85Q90.04-3 90.69-3.78 91.34-4.55 91.64-6.45L91.64-6.45Q92.09-10.35 92.87-18.1 93.64-25.85 93.64-26.6L93.64-26.6Q93.64-27.95 92.87-28.45 92.09-28.95 89.84-29.15L89.84-29.15 89.59-29.45 90.04-32.35Q94.14-32.1 96.29-32.1L96.29-32.1Q97.39-32.1 101.59-32.3L101.59-32.3Q103.59-25.25 107.14-13.95L107.14-13.95 107.99-11.35 108.39-11.35Q108.69-12.35 109.19-13.88 109.69-15.4 110.24-17.15L110.24-17.15Q112.79-24.75 115.09-32.15L115.09-32.15Q116.14-32.15 116.79-32.1L116.79-32.1 119.44-32.05 120.99-32.1Q122.04-32.1 123.69-32.2 125.34-32.3 126.09-32.4L126.09-32.4 126.29-32.2 125.99-29.2Q123.84-29 123.07-28.45 122.29-27.9 122.29-26.55L122.29-26.55Q122.29-25 122.69-18.68 123.09-12.35 123.49-7.75L123.49-7.75Q123.79-5 124.27-4.08 124.74-3.15 125.94-3.15L125.94-3.15Q126.49-3.15 126.87-3.2 127.24-3.25 127.34-3.25L127.34-3.25 127.54-3 127.09 0.15Q126.34 0.15 125.74 0.1L125.74 0.1Q123.54 0 122.04 0L122.04 0Q120.59 0 118.22 0.15 115.84 0.3 114.94 0.4L114.94 0.4 115.29-2.85Q116.79-3.05 117.44-3.63 118.09-4.2 118.09-5.35L118.09-5.35Q118.09-5.55 117.69-11.55L117.69-11.55Q117.14-19.4 117.04-22.6L117.04-22.6 116.59-22.6Q112.39-10.9 108.79 0.35L108.79 0.35 105.39 0.8ZM141.34 5L140.94 4.5Q140.99 3.75 141.09 1.25 141.19-1.25 141.24-3.5L141.24-3.5Q133.44-3.7 129.24-3.7L129.24-3.7 129.39-6.95 142.69-25.4 142.99-25.5 147.04-24.95 147.04-7.85 151.14-7.85 151.54-7.25 151.09-3.2 147.04-3.35Q147.14-0.65 147.24 1.35 147.34 3.35 147.39 4L147.39 4 146.99 4.4 141.34 5ZM134.44-7.85L141.29-7.85 141.29-16.85 140.79-16.85 134.44-7.85ZM178.09 0.8Q174.84 0.8 172.64-3.85L172.64-3.85 168.29-12.65 164.74-12.65 164.64-7Q164.64-5.25 164.89-4.48 165.14-3.7 165.84-3.45 166.54-3.2 168.24-3.15L168.24-3.15 168.39-2.85 167.94 0.2Q167.04 0.15 164.79 0.1 162.54 0.05 160.64 0.05L160.64 0.05Q158.79 0.05 156.84 0.15 154.89 0.25 154.29 0.3L154.29 0.3 154.74-3Q156.84-3.25 157.56-4.1 158.29-4.95 158.29-7.1L158.29-7.1 158.29-26.45Q158.29-27.9 157.96-28.4 157.64-28.9 156.69-28.9L156.69-28.9Q156.14-28.9 155.64-28.85 155.14-28.8 154.99-28.8L154.99-28.8 154.69-29.2 155.14-32.2Q155.84-32.2 157.71-32.15 159.59-32.1 161.39-32.1L161.39-32.1Q163.39-32.1 165.71-32.18 168.04-32.25 168.94-32.3L168.94-32.3Q174.64-32.3 177.66-30.1 180.69-27.9 180.69-23.75L180.69-23.75Q180.69-20.8 178.94-18.35 177.19-15.9 173.94-14.25L173.94-14.25 178.34-7.1Q179.74-4.8 181.04-3.8 182.34-2.8 183.94-2.8L183.94-2.8 184.29-2.35 183.94 0.25 178.09 0.8ZM169.39-16.5Q171.04-17.2 172.39-18.57 173.74-19.95 173.74-22.85L173.74-22.85Q173.74-25.6 171.89-26.95 170.04-28.3 166.19-28.3L166.19-28.3Q165.69-28.3 165.51-28.1 165.34-27.9 165.29-27.2L165.29-27.2Q164.99-22.05 164.89-17L164.89-17 169.39-16.5Z" opacity="1" transform="matrix(1,0,0,1,0,0)" fill="#ffffff" class="undefined-text-0" data-fill-palette-color="quaternary" id="text-0"></path></svg></g></svg></g><g transform="matrix(1,0,0,1,0,54.06754657954146)"><svg viewBox="0 0 125.14532084446394 24.87320076981302" height="24.87320076981302" width="125.14532084446394"><g transform="matrix(1,0,0,1,0,0)"><svg width="125.14532084446394" viewBox="3.049999952316284 -38 192.67999267578125 38.29999923706055" height="24.87320076981302" data-palette-color="#ffffff"><path d="M16.7 0.25L16.7 0.25Q12.75 0.25 9.68-1.58 6.6-3.4 4.83-6.55 3.05-9.7 3.05-13.65L3.05-13.65Q3.05-17.65 4.75-20.8 6.45-23.95 9.4-25.78 12.35-27.6 16.2-27.6L16.2-27.6Q19.25-27.6 21.83-26.4 24.4-25.2 26.35-22.8L26.35-22.8Q26.9-22.2 26.75-21.53 26.6-20.85 25.9-20.35L25.9-20.35Q25.35-19.95 24.68-20.08 24-20.2 23.5-20.8L23.5-20.8Q20.6-24.1 16.2-24.1L16.2-24.1Q13.4-24.1 11.28-22.75 9.15-21.4 7.98-19.05 6.8-16.7 6.8-13.65L6.8-13.65Q6.8-10.65 8.05-8.3 9.3-5.95 11.55-4.6 13.8-3.25 16.7-3.25L16.7-3.25Q18.65-3.25 20.28-3.78 21.9-4.3 23.15-5.4L23.15-5.4Q23.75-5.9 24.4-5.95 25.05-6 25.6-5.55L25.6-5.55Q26.2-5 26.28-4.3 26.35-3.6 25.8-3.1L25.8-3.1Q22.15 0.25 16.7 0.25ZM46.35 0.25L46.35 0.25Q42.5 0.25 39.45-1.58 36.4-3.4 34.62-6.55 32.85-9.7 32.85-13.65L32.85-13.65Q32.85-17.65 34.67-20.8 36.5-23.95 39.65-25.78 42.8-27.6 46.75-27.6L46.75-27.6Q50.7-27.6 53.82-25.78 56.95-23.95 58.77-20.8 60.6-17.65 60.65-13.65L60.65-13.65 59.1-12.45Q59.1-8.85 57.42-5.98 55.75-3.1 52.87-1.43 50 0.25 46.35 0.25ZM46.75-3.25L46.75-3.25Q49.65-3.25 51.92-4.6 54.2-5.95 55.52-8.33 56.85-10.7 56.85-13.65L56.85-13.65Q56.85-16.65 55.52-19 54.2-21.35 51.92-22.73 49.65-24.1 46.75-24.1L46.75-24.1Q43.9-24.1 41.6-22.73 39.3-21.35 37.95-19 36.6-16.65 36.6-13.65L36.6-13.65Q36.6-10.7 37.95-8.33 39.3-5.95 41.6-4.6 43.9-3.25 46.75-3.25ZM58.7 0L58.7 0Q57.85 0 57.3-0.53 56.75-1.05 56.75-1.9L56.75-1.9 56.75-10.45 57.7-14.4 60.65-13.65 60.65-1.9Q60.65-1.05 60.1-0.53 59.55 0 58.7 0ZM80.05 0.3L80.05 0.3Q76.5 0.3 73.7-1.18 70.9-2.65 69.27-5.5 67.65-8.35 67.65-12.45L67.65-12.45 67.65-25.45Q67.65-26.25 68.2-26.8 68.75-27.35 69.55-27.35L69.55-27.35Q70.4-27.35 70.95-26.8 71.5-26.25 71.5-25.45L71.5-25.45 71.5-12.45Q71.5-9.35 72.67-7.35 73.84-5.35 75.87-4.35 77.9-3.35 80.45-3.35L80.45-3.35Q82.9-3.35 84.87-4.3 86.84-5.25 88-6.9 89.15-8.55 89.15-10.65L89.15-10.65 91.9-10.65Q91.75-7.5 90.17-5.03 88.59-2.55 85.95-1.13 83.3 0.3 80.05 0.3ZM91.05 0L91.05 0Q90.2 0 89.67-0.53 89.15-1.05 89.15-1.95L89.15-1.95 89.15-25.45Q89.15-26.3 89.67-26.83 90.2-27.35 91.05-27.35L91.05-27.35Q91.9-27.35 92.45-26.83 93-26.3 93-25.45L93-25.45 93-1.95Q93-1.05 92.45-0.53 91.9 0 91.05 0ZM113.74 0L112.69 0Q110.04 0 107.97-1.25 105.89-2.5 104.69-4.67 103.49-6.85 103.49-9.65L103.49-9.65 103.49-34.1Q103.49-34.95 104.02-35.5 104.54-36.05 105.39-36.05L105.39-36.05Q106.24-36.05 106.79-35.5 107.34-34.95 107.34-34.1L107.34-34.1 107.34-9.65Q107.34-7.1 108.84-5.48 110.34-3.85 112.69-3.85L112.69-3.85 114.04-3.85Q114.84-3.85 115.34-3.3 115.84-2.75 115.84-1.9L115.84-1.9Q115.84-1.05 115.24-0.53 114.64 0 113.74 0L113.74 0ZM112.99-23L100.24-23Q99.49-23 98.99-23.48 98.49-23.95 98.49-24.65L98.49-24.65Q98.49-25.4 98.99-25.88 99.49-26.35 100.24-26.35L100.24-26.35 112.99-26.35Q113.74-26.35 114.24-25.88 114.74-25.4 114.74-24.65L114.74-24.65Q114.74-23.95 114.24-23.48 113.74-23 112.99-23L112.99-23ZM124.84 0L124.84 0Q123.94 0 123.42-0.53 122.89-1.05 122.89-1.95L122.89-1.95 122.89-25.4Q122.89-26.3 123.42-26.83 123.94-27.35 124.84-27.35L124.84-27.35Q125.69-27.35 126.22-26.83 126.74-26.3 126.74-25.4L126.74-25.4 126.74-1.95Q126.74-1.05 126.22-0.53 125.69 0 124.84 0ZM124.79-32.55L124.79-32.55Q123.69-32.55 122.89-33.35 122.09-34.15 122.09-35.3L122.09-35.3Q122.09-36.55 122.92-37.27 123.74-38 124.84-38L124.84-38Q125.89-38 126.72-37.27 127.54-36.55 127.54-35.3L127.54-35.3Q127.54-34.15 126.74-33.35 125.94-32.55 124.79-32.55ZM148.99 0.25L148.99 0.25Q144.99 0.25 141.84-1.55 138.69-3.35 136.89-6.5 135.09-9.65 135.09-13.65L135.09-13.65Q135.09-17.7 136.89-20.85 138.69-24 141.84-25.8 144.99-27.6 148.99-27.6L148.99-27.6Q152.99-27.6 156.11-25.8 159.24-24 161.04-20.85 162.84-17.7 162.89-13.65L162.89-13.65Q162.89-9.65 161.06-6.5 159.24-3.35 156.11-1.55 152.99 0.25 148.99 0.25ZM148.99-3.25L148.99-3.25Q151.89-3.25 154.19-4.6 156.49-5.95 157.79-8.3 159.09-10.65 159.09-13.65L159.09-13.65Q159.09-16.65 157.79-19.03 156.49-21.4 154.19-22.75 151.89-24.1 148.99-24.1L148.99-24.1Q146.09-24.1 143.79-22.75 141.49-21.4 140.16-19.03 138.84-16.65 138.84-13.65L138.84-13.65Q138.84-10.65 140.16-8.3 141.49-5.95 143.79-4.6 146.09-3.25 148.99-3.25ZM193.83 0L193.83 0Q192.98 0 192.44-0.55 191.88-1.1 191.88-1.9L191.88-1.9 191.88-14.9Q191.88-18 190.71-20 189.53-22 187.51-23 185.48-24 182.94-24L182.94-24Q180.48-24 178.51-23.05 176.53-22.1 175.38-20.45 174.23-18.8 174.23-16.7L174.23-16.7 171.48-16.7Q171.58-19.85 173.19-22.33 174.78-24.8 177.44-26.23 180.08-27.65 183.33-27.65L183.33-27.65Q186.88-27.65 189.69-26.18 192.48-24.7 194.11-21.85 195.73-19 195.73-14.9L195.73-14.9 195.73-1.9Q195.73-1.1 195.19-0.55 194.63 0 193.83 0ZM172.33 0L172.33 0Q171.44 0 170.91-0.53 170.38-1.05 170.38-1.9L170.38-1.9 170.38-25.4Q170.38-26.3 170.91-26.83 171.44-27.35 172.33-27.35L172.33-27.35Q173.19-27.35 173.71-26.83 174.23-26.3 174.23-25.4L174.23-25.4 174.23-1.9Q174.23-1.05 173.71-0.53 173.19 0 172.33 0Z" opacity="1" transform="matrix(1,0,0,1,0,0)" fill="#ffffff" class="undefined-text-1" data-fill-palette-color="quaternary" id="text-1"></path></svg></g></svg></g></svg></g></svg></g><g><svg viewBox="0 0 180.77162453814833 163.64416925521186" height="163.64416925521186" width="180.77162453814833"><g><svg xmlns="http://www.w3.org/2000/svg" xmlns:xlink="http://www.w3.org/1999/xlink" version="1.1" x="0" y="0" viewBox="6.566043853759766 10.188848495483398 86.94927978515625 78.71115112304688" enable-background="new 0 0 100 100" xml:space="preserve" height="163.64416925521186" width="180.77162453814833" class="icon-icon-0" data-fill-palette-color="quaternary" id="icon-0"><path d="M66.1 68.9c-2.3 0-3.1-2.8-3.6-4.5-0.1-0.3-0.2-0.7-0.3-0.9-0.1-0.4-0.3-0.8-0.4-1.3-0.3 0.2-0.6 0.3-0.8 0.4 0 0.1-0.1 0.2-0.1 0.3-0.2 0.5-0.6 0.8-1.2 1-0.8 0.2-1.3 0-1.7-0.2-0.3-0.2-0.5-0.5-0.6-0.8-0.8 0.5-1.4 0.4-1.7 0.2-0.8-0.4-1.1-1.3-1.3-2.3 0 0 0 0-0.1 0.1-0.4 0.3-0.8 0.6-1.1 0.8-0.5 0.3-1.1 0.2-1.4-0.3-0.3-0.5-0.2-1.1 0.3-1.4 0.3-0.2 0.7-0.5 1-0.7 0.5-0.4 1.1-0.8 1.7-1.1 0.3-0.2 0.7-0.1 1 0 0.3 0.2 0.5 0.5 0.5 0.8 0 1.1 0.1 1.7 0.2 2 0.1-0.2 0.1-0.4 0.1-0.5 0.1-0.5 0.2-1.1 0.6-1.5 0.3-0.3 0.6-0.4 1-0.3 0.4 0.1 0.6 0.4 0.7 0.7 0 0 0 0.1 0 0.1 0.1-0.1 0.3-0.2 0.4-0.2 0.5-0.1 1 0.1 1.2 0.6 0.1 0.2 0.1 0.4 0.2 0.6 0.1-0.4-0.3-1.4-0.5-1.9-0.1-0.2-0.2-0.4-0.2-0.5-0.2-0.4 0-0.9 0.4-1.2 0.4-0.3 0.9-0.2 1.3 0.1 1.1 1.1 1.6 2.8 1.9 4.4 0.1 0.6 0.3 1.2 0.4 1.6 0.1 0.3 0.2 0.7 0.3 1 0.4 1.3 0.7 2.2 1.1 2.6-0.2-1.4-0.6-2.8-0.9-4.1-0.2-0.8-0.3-1.6-0.5-2.4-0.3-1.9-0.6-3.8-2-4.9-1.1-0.8-3.1-1.2-4.6-0.8-0.8 0.2-1.4 0.9-2.1 1.7-0.5 0.6-1 1.2-1.8 1.7-0.2 0.4-0.6 0.7-1 0.7-0.1 0-0.2 0-0.2 0-0.5 0.1-1-0.2-1.1-0.7-0.1-0.5 0.1-1 0.6-1.2 0.8-0.3 1.4-1 2-1.8 0.8-0.9 1.7-2 3.2-2.4 2.1-0.5 4.8 0 6.4 1.2 2 1.6 2.4 4 2.7 6.1 0.1 0.8 0.2 1.5 0.4 2.2 0.5 1.8 1 3.8 1.2 5.9 0 0.5-0.3 0.9-0.8 1C66.6 68.9 66.3 68.9 66.1 68.9z" fill="#ffffff" data-fill-palette-color="quaternary"></path><path d="M34.1 29.3c-0.5 0-0.9-0.1-1.3-0.6-0.5-0.5-0.7-1.6-1-3.1-0.1-0.4-0.1-0.8-0.2-1-0.1-0.2-0.1-0.3-0.2-0.5-0.3-0.9-0.6-1.8-0.4-2.9 0.1-0.5 0.6-0.9 1.2-0.8 0.2 0 0.4 0.2 0.5 0.3 0.8 0 1.7-0.2 2.6-0.4 0.7-0.2 1.4-0.3 2.1-0.4 1.4-0.2 2.8-0.4 4.2-0.7 0.9-0.2 1.8-0.3 2.7-0.5 0.6-0.1 1.3-0.2 2-0.4 1.9-0.4 4-0.9 5.9-0.6 0.5 0.1 0.8 0.5 0.8 1 0 1.3 0.5 3 1.3 5.3 0.2 0.5 0 1-0.4 1.2-1.4 0.8-3.4 1.2-5.1 1.5-0.6 0.1-1.2 0.2-1.8 0.4-1.8 0.4-3.6 0.6-5.4 0.8-1.9 0.2-3.7 0.3-5.4 0.8-0.2 0.1-0.4 0.1-0.6 0.2C35.2 29.1 34.7 29.3 34.1 29.3zM33.1 22.7c0.1 0.2 0.1 0.5 0.2 0.8 0.1 0.2 0.1 0.4 0.2 0.6 0.1 0.3 0.2 0.7 0.3 1.2 0.1 0.5 0.3 1.6 0.5 2.1 0.2 0 0.5-0.1 0.7-0.2 0.3-0.1 0.5-0.2 0.8-0.3 1.9-0.5 3.8-0.7 5.7-0.9 1.8-0.2 3.5-0.3 5.1-0.7 0.6-0.1 1.2-0.3 1.9-0.4 1.3-0.2 2.7-0.5 3.7-0.9-0.4-1.2-0.9-2.8-1.1-4.2-1.3 0-2.9 0.3-4.3 0.6-0.8 0.2-1.5 0.3-2.1 0.4-0.9 0.1-1.7 0.3-2.6 0.5-1.4 0.3-2.9 0.5-4.3 0.7-0.6 0.1-1.2 0.2-1.9 0.4C34.9 22.5 34 22.7 33.1 22.7z" fill="#ffffff" data-fill-palette-color="quaternary"></path><path d="M32.4 22.7c-0.4 0-0.8-0.2-0.9-0.6-1.2-3-1.6-7.1 0.9-9.5 1.6-1.5 4.6-1.9 6.5-2.2 3.7-0.5 6.5-0.3 9 2.7 1.7 2.1 2.7 3.4 3.7 5.9 0.2 0.5 0 1.1-0.6 1.3-0.5 0.2-1.1 0-1.3-0.6-1-2.3-1.8-3.5-3.4-5.4-1.9-2.2-3.9-2.4-7.2-2-1.7 0.2-4.2 0.6-5.4 1.7-1.8 1.7-1.3 5-0.4 7.3 0.2 0.5 0 1.1-0.6 1.3C32.6 22.7 32.5 22.7 32.4 22.7z" fill="#ffffff" data-fill-palette-color="quaternary"></path><path d="M46.6 34.7c-0.5 0-1 0-1.5-0.1-0.6 0-1-0.5-0.9-1.1 0-0.6 0.5-1 1.1-0.9 2.9 0.2 3.7-0.3 4-0.5 0.1-0.1 0.1-0.2 0.1-0.4 0-0.5-1.2-1.4-1.8-1.9-0.1-0.1-0.2-0.2-0.4-0.3 0 0 0 0 0 0-0.5 0.1-1.1-0.3-1.2-0.8-0.1-0.6 0.2-1 0.4-1.2 0.1-0.1 0.6-0.4 1.2-0.2 0.2 0 0.3 0.1 0.4 0.2 0.2 0.2 0.5 0.4 0.8 0.7 1.1 0.9 2.5 1.9 2.6 3.3 0.1 0.8-0.2 1.5-0.7 2C49.9 34.3 48.6 34.7 46.6 34.7z" fill="#ffffff" data-fill-palette-color="quaternary"></path><path d="M38.3 33.3c-2 0-3.5-1.4-3.9-2.9-0.5-1.9 0.4-3.6 2.3-4.5 0.5-0.2 1.1 0 1.3 0.5 0.2 0.5 0 1.1-0.5 1.3-1 0.5-1.5 1.3-1.2 2.2 0.2 0.8 1 1.6 2.2 1.4 1.2-0.1 2.3-0.8 3.5-1.5 1.1-0.7 2.2-1.3 3.5-1.6 1.2-0.3 1.7 0 2.4 0.4 0.2 0.1 0.4 0.3 0.8 0.5l0.3 0.1c1.1 0.6 1.8 0.9 2.5 0.6 0.4-0.2 0.6-0.5 0.7-1 0.2-0.9-0.2-2.2-0.8-3.1 0 0 0 0 0 0-0.5 0-0.9-0.3-1-0.8-0.1-0.6 0.2-1 0.3-1.2 0.2-0.2 0.5-0.4 1.1-0.3 0.2 0 0.4 0.1 0.5 0.3 1.1 1.2 2.1 3.5 1.8 5.5-0.2 1.1-0.8 1.9-1.8 2.4-1.6 0.8-3.2 0-4.3-0.6l-0.3-0.1c-0.5-0.2-0.8-0.4-1-0.6C46.5 30 46.5 30 46 30.1c-1 0.2-1.9 0.8-2.9 1.4-1.3 0.8-2.7 1.6-4.3 1.8C38.6 33.3 38.4 33.3 38.3 33.3z" fill="#ffffff" data-fill-palette-color="quaternary"></path><path d="M39.4 30.2c-0.5 0-0.9-0.3-1-0.8-0.1-0.5 0.1-1 0.6-1.2l0.4-0.2c0.4-0.2 0.9-0.4 1.3-0.5 0.5-0.1 1.1 0.2 1.2 0.7 0.1 0.5-0.2 1.1-0.7 1.2-0.2 0.1-0.4 0.1-0.6 0.2-0.2 0.3-0.5 0.4-0.8 0.4-0.1 0-0.2 0-0.3 0C39.5 30.2 39.4 30.2 39.4 30.2z" fill="#ffffff" data-fill-palette-color="quaternary"></path><path d="M50.2 28.7c-0.1 0-0.3 0-0.4-0.1-0.2-0.1-0.4-0.2-0.5-0.3-0.1 0-0.2-0.1-0.3-0.1-0.4 0.3-1 0.2-1.4-0.2-0.4-0.4-0.3-1 0.1-1.4 1-0.9 2-0.3 2.5 0 0.1 0.1 0.2 0.1 0.3 0.2 0.5 0.2 0.7 0.8 0.5 1.3C51 28.4 50.6 28.7 50.2 28.7z" fill="#ffffff" data-fill-palette-color="quaternary"></path><path d="M50.2 43.6c-0.3 0-0.6-0.2-0.8-0.4-0.2-0.3-0.8-0.5-1.4-0.6-0.5-0.2-1.1-0.3-1.6-0.6-1.1-0.7-5.6-3.9-6-6.3-0.1-0.3 0-0.6 0.2-0.9 0.2-0.2 0.5-0.4 0.8-0.3 0.9 0.1 1.8 0.3 2.7 0.5 1.2 0.3 2.4 0.5 3.6 0.5 1.4 0 2.8-0.2 4.1-0.5-0.8-1.2-1.4-2.5-1.4-3.5 0-0.6 0.5-1 1-1 0.6 0 1 0.5 1 1 0 0.5 0.6 1.7 1.8 3.4l0.1 0.1c0.2 0.3 0.2 0.6 0.1 0.9-0.1 0.3-0.4 0.5-0.7 0.6-1.8 0.5-3.8 0.9-6 0.9-1.5 0-2.8-0.3-4-0.6-0.1 0-0.2-0.1-0.4-0.1 1.2 1.3 3 2.8 4 3.4 0.3 0.2 0.7 0.3 1.1 0.4 0.9 0.3 1.9 0.5 2.5 1.4 0.3 0.5 0.2 1.1-0.3 1.4C50.6 43.5 50.4 43.6 50.2 43.6z" fill="#ffffff" data-fill-palette-color="quaternary"></path><path d="M44.8 47.7c-3 0-6.3-1.4-7.9-3.6-0.3-0.5-0.2-1.1 0.2-1.4 0.5-0.3 1.1-0.2 1.4 0.2 1.5 2.2 5.7 3.4 8.2 2.5 1.4-0.5 2.1-1.7 1.9-3.5 0-0.4 0.1-0.8 0.5-1 0.3-0.2 0.8-0.2 1.1 0.1 0.6 0 1 0.4 1 0.9 0 0.4-0.2 0.8-0.6 1-0.1 2.1-1.3 3.6-3.2 4.3C46.6 47.5 45.7 47.7 44.8 47.7z" fill="#ffffff" data-fill-palette-color="quaternary"></path><path d="M33 35.1c-2.1 0-4.6-1.2-5.4-2.8-0.3-0.5-0.9-2.2 1.3-3.7 0.8-0.5 3.1-0.9 4.3-0.3 0.8 0.4 1 1 1 1.3 0.1 0.5-0.3 1-0.9 1.1-0.5 0-0.9-0.2-1-0.7-0.5-0.2-1.9 0-2.3 0.2-0.9 0.6-0.7 0.9-0.6 1.1 0.6 1.1 3.2 2.1 4.4 1.6 0.5-0.2 1.1 0.1 1.3 0.6 0.2 0.5-0.1 1.1-0.6 1.3C34.1 35 33.6 35.1 33 35.1z" fill="#ffffff" data-fill-palette-color="quaternary"></path><path d="M30.9 45.1c-0.3 0-0.6-0.1-0.8-0.3-0.4-0.4-0.3-1 0.1-1.4 1.8-1.5 2-4 2.1-6.6 0.1-1 0.1-2 0.3-2.9 0.1-0.5 0.5-0.8 0.9-0.8 0.4 0 0.7 0.1 1 0.4 0.1 0.2 0.4 0.5 0.3 1.1 0 0.3-0.2 0.5-0.4 0.6-0.1 0.6-0.1 1.2-0.1 1.8-0.2 2.8-0.4 5.9-2.8 8C31.3 45 31.1 45.1 30.9 45.1z" fill="#ffffff" data-fill-palette-color="quaternary"></path><path d="M34.7 47.7c-0.2 0-0.3 0-0.5-0.1-0.6-0.3-1.3-0.8-2-1.2-0.6-0.4-1.4-1-1.8-1.1-0.5-0.2-0.8-0.7-0.6-1.3 0.2-0.5 0.7-0.8 1.3-0.6 0.6 0.2 1.4 0.7 2.3 1.3 0.6 0.4 1.2 0.9 1.7 1.1 0.5 0.3 0.7 0.9 0.4 1.3C35.5 47.5 35.1 47.7 34.7 47.7z" fill="#ffffff" data-fill-palette-color="quaternary"></path><path d="M34.7 48.3c-0.1 0-0.2 0-0.4-0.1-0.5-0.2-0.8-0.8-0.6-1.3 0.2-0.6 0.5-1.1 0.8-1.6 0.4-0.8 0.8-1.5 0.9-2.3 0.1-0.5 0.6-0.9 1.1-0.9 0.5 0.1 0.9 0.6 0.9 1.1-0.1 1.2-0.7 2.2-1.2 3.1-0.3 0.5-0.5 0.9-0.7 1.4C35.5 48.1 35.1 48.3 34.7 48.3z" fill="#ffffff" data-fill-palette-color="quaternary"></path><path d="M38.9 27.5c-0.3 0-0.6-0.1-0.8-0.4-0.9-1.1-1.1-3.2-1.3-5.2 0-0.4-0.1-0.7-0.1-0.9-0.1-0.5 0.2-1.1 0.8-1.2 0.5-0.1 1.1 0.2 1.2 0.8 0 0.2 0.1 0.6 0.1 1.1 0.1 1.1 0.3 3.4 0.9 4.1 0.3 0.4 0.3 1.1-0.2 1.4C39.3 27.4 39.1 27.5 38.9 27.5z" fill="#ffffff" data-fill-palette-color="quaternary"></path><path d="M41.9 26.9c-0.4 0-0.8-0.3-1-0.7-0.3-1-0.5-2-0.6-2.9-0.1-0.6-0.2-1.1-0.3-1.7 0-0.2-0.1-0.4-0.1-0.6 0-0.1 0-0.1 0-0.2 0 0-0.1-0.1-0.1-0.1-0.4-0.4-0.4-1-0.1-1.4 0.3-0.4 0.8-0.5 1.2-0.4 0.8 0.2 0.9 1 1 1.7 0 0.2 0.1 0.4 0.1 0.5 0.1 0.6 0.2 1.2 0.3 1.8 0.1 0.9 0.3 1.8 0.6 2.6 0.2 0.5-0.1 1.1-0.6 1.3C42.1 26.9 42 26.9 41.9 26.9z" fill="#ffffff" data-fill-palette-color="quaternary"></path><path d="M46.4 26.6c-0.5 0-1-0.4-1-0.9-0.3-4.1-0.9-5.6-1.2-5.9-0.4-0.4-0.4-1-0.1-1.4 0.4-0.4 1-0.4 1.4-0.1 0.4 0.3 1.4 1.2 1.8 7.2C47.4 26.1 47 26.5 46.4 26.6 46.4 26.6 46.4 26.6 46.4 26.6z" fill="#ffffff" data-fill-palette-color="quaternary"></path><path d="M48.5 24.8c-0.4 0-0.8-0.2-0.9-0.6-0.6-1.4-1.2-3.6-1-5.6 0.1-0.5 0.5-1 1.1-0.9 0.5 0.1 0.9 0.5 0.9 1.1-0.1 1.3 0.2 3.1 0.8 4.6 0.2 0.5 0 1.1-0.5 1.3C48.7 24.8 48.6 24.8 48.5 24.8z" fill="#ffffff" data-fill-palette-color="quaternary"></path><path d="M41.5 63.7c-0.3 0-0.6-0.1-0.8-0.2-0.3-0.2-0.5-0.5-0.5-0.9 0-0.6-1.5-1.7-2.2-2.2-0.5-0.4-1-0.7-1.3-1.1-0.3-0.3-0.7-0.6-1.1-1-1.1-0.9-2.3-2-2.8-3-0.8-1.9-0.5-4.3-0.2-6.4 0.1-0.9 0.2-1.7 0.3-2.4 0-0.6 0.4-1 1-1 0.6 0 1 0.5 1 1 0 0.8-0.1 1.7-0.3 2.6-0.3 1.9-0.5 4 0 5.4 0.3 0.6 1.4 1.6 2.2 2.3 0.5 0.4 0.9 0.8 1.2 1.1 0.2 0.2 0.7 0.6 1.1 0.9 1.1 0.8 2.3 1.7 2.8 2.8 0.9-0.3 2.6-1.4 5.1-3.3 0.5-0.4 0.9-0.7 1.1-0.8 0.1-0.1 0.2-0.2 0.4-0.3 0.8-0.7 2-1.6 3.1-1.3 0.4 0.1 0.7 0.4 0.7 0.8 0.1 0.6-0.2 1.2-0.7 1.6-0.4 0.2-0.8 0.2-1.1-0.1-0.3 0.2-0.6 0.4-0.7 0.5-0.2 0.2-0.4 0.3-0.5 0.4-0.2 0.1-0.6 0.4-1 0.7C45 62.3 42.9 63.7 41.5 63.7z" fill="#ffffff" data-fill-palette-color="quaternary"></path><path d="M24.9 50.4c-0.1 0-0.2 0-0.2 0-0.5-0.1-0.9-0.7-0.7-1.2 0.4-1.5 1.8-2.5 3-3.4 0.7-0.5 1.3-1 1.7-1.4 0.1-0.2 0.3-0.3 0.6-0.3 0.6-0.1 1 0.1 1.1 0.3 0.2 0.2 0.4 0.5 0.3 1.2-0.1 0.5-0.6 0.9-1.1 0.8-0.4 0.4-0.9 0.8-1.4 1.1-1 0.7-2.1 1.5-2.3 2.3C25.8 50.1 25.4 50.4 24.9 50.4z" fill="#ffffff" data-fill-palette-color="quaternary"></path><path d="M32.4 71c-0.2 0-0.5-0.1-0.7-0.2-0.9-0.8-0.8-2.4-0.7-3.9 0-0.4 0.1-0.8 0-1-0.1-1.4 0-2.8 0-4 0-0.4 0-0.9 0-1.3 0 0 0 0 0-0.1l0-0.5c0-0.6 0.5-1 1-1 0.6 0 1 0.5 1 1 0 0.6 0 1.2 0 1.8 0 1.3-0.1 2.6 0 3.9 0 0.3 0 0.8 0 1.3 0 0.6-0.1 2 0.1 2.3 0.4 0.4 0.4 1 0.1 1.4C33 70.9 32.7 71 32.4 71z" fill="#ffffff" data-fill-palette-color="quaternary"></path><path d="M26.9 76.7c-0.4 0-0.7-0.2-0.9-0.6-0.5-1.1-0.5-2.1 0-3-0.4-0.1-0.7-0.3-0.8-0.7-0.2-0.5 0.1-1.1 0.6-1.3 4-1.4 8.4-2.6 14.3-3.9 0.3-0.1 0.6-0.1 1-0.3 2.8-0.8 5.5-1.3 6.9-0.1 1.2 1 1.2 2 1.1 2.7-0.7 2.8-6.9 4.3-6.9 4.3-2.1 0.5-4.2 0.8-6.3 1.1-2.9 0.4-5.9 0.8-8.7 1.7C27.1 76.7 27 76.7 26.9 76.7zM29.8 71.9c0 0.3-0.2 0.6-0.5 0.7-1.2 0.6-1.6 1.2-1.6 1.7 2.6-0.7 5.4-1.1 8-1.5 2-0.3 4.1-0.6 6.1-1 1.8-0.4 5.2-1.8 5.4-2.8 0.1-0.2-0.2-0.5-0.4-0.7-0.7-0.6-3.9 0.2-5.1 0.6-0.4 0.1-0.8 0.2-1.1 0.3C36.3 70.1 32.8 71 29.8 71.9z" fill="#ffffff" data-fill-palette-color="quaternary"></path><path d="M22.4 81.7c-2.1 0-4.3-0.4-5.9-0.7L16 80.9c-2.6-0.5-5.4-1.3-6.8-3.7-1.4-2.4-1.8-5.7-2.1-8.4L7 68c-1.1-9.2-0.1-16.6 2.9-22.1 1.3-2.3 3.8-5.1 6.9-5.7 1.9-0.4 3.9 0 5.6 1.3 3.8 2.8 4.1 8 4.3 12.2l0 0.9c0.1 1.7 0.2 3.4 0.3 5.2 0.3 4.9 0.5 10 0.9 15 0 0.1 0.1 0.2 0.1 0.4 0 0.2 0 0.3 0 0.5 0 0.1 0 0.1 0 0.2 0 0 0 0 0 0 0 1.8 0 4.5-2.5 5.4C24.6 81.5 23.5 81.7 22.4 81.7zM18.2 42c-0.3 0-0.7 0-1 0.1-2.1 0.5-4.2 2.3-5.6 4.8C8.9 52 7.9 59.2 9 67.8L9 68.5c0.3 2.5 0.6 5.6 1.9 7.6 1 1.7 3.2 2.3 5.5 2.7l0.4 0.1c2.4 0.4 6 1.1 8 0.3 1.1-0.4 1.2-1.7 1.2-3.6 0 0 0-0.1 0-0.1-0.4-5.3-0.7-10.6-1-15.8-0.1-1.7-0.2-3.4-0.3-5.2l0-0.9c-0.2-3.8-0.4-8.5-3.5-10.7C20.3 42.4 19.3 42 18.2 42z" fill="#ffffff" data-fill-palette-color="quaternary"></path><path d="M29.7 85.2c-2.9 0-5.8-0.2-8.5-0.5-0.5-0.1-0.9-0.6-0.9-1.1 0.1-0.5 0.6-0.9 1.1-0.9 4.6 0.5 9.6 0.9 14.8 0.1l0.5-0.1c1.2-0.2 3.6-0.5 4.3-1.3 0.5-0.5 0.6-3.2 0.2-3.8-0.6-0.7-2.1-0.5-3.3-0.3-0.4 0.1-0.7 0.1-1 0.1-1 0.1-2 0.1-2.9 0.1-2.4 0-4.4 0.1-6.5 1.3-0.5 0.3-1.1 0.1-1.4-0.3-0.3-0.5-0.1-1.1 0.3-1.4 2.5-1.5 5-1.5 7.5-1.6 0.9 0 1.8 0 2.7-0.1 0.3 0 0.6-0.1 0.9-0.1 1.6-0.2 3.9-0.6 5.2 1 1.1 1.4 0.8 5.2-0.3 6.4-1.1 1.1-3.3 1.5-5.4 1.9l-0.4 0.1C34.2 85.1 31.9 85.2 29.7 85.2z" fill="#ffffff" data-fill-palette-color="quaternary"></path><path d="M48.5 86.8c-0.5 0-0.9-0.4-1-0.9-0.2-1.7 0.2-3.2 0.6-4.8 0.4-1.4 0.7-2.7 0.6-4.1 0-0.2 0-0.6 0-0.9 0-0.6-0.1-2-0.3-2.3-1.2-1.4-5.9 0.3-8 1-0.2 0.1-0.4 0.2-0.6 0.2-0.2 0.3-0.5 0.4-0.9 0.4l-0.4 0c-0.5 0-0.9-0.4-0.9-0.9 0-0.5 0.3-0.9 0.7-1 0.4-0.1 0.9-0.3 1.4-0.5 3.2-1.1 8.1-2.8 10.1-0.4 0.7 0.8 0.8 2.3 0.8 3.5 0 0.3 0 0.6 0 0.8 0.2 1.7-0.2 3.2-0.6 4.8-0.4 1.4-0.7 2.7-0.6 4 0.1 0.5-0.3 1-0.9 1.1C48.5 86.8 48.5 86.8 48.5 86.8z" fill="#ffffff" data-fill-palette-color="quaternary"></path><path d="M44 88.3c-0.2 0-0.4-0.1-0.5-0.2-0.5-0.3-0.6-0.9-0.3-1.4 0.2-0.3 0.2-1 0.2-1.6 0-0.4 0-0.7 0-1.1 0.1-0.7 0.2-1.5 0.4-2.2 0.2-1 0.4-2 0.4-3 0-0.2 0-0.4 0-0.7-0.4 0.1-0.8 0.1-1.2 0.1-0.8 0.1-1.6 0.1-1.9 0.4-0.4 0.4-1 0.4-1.4 0-0.4-0.4-0.4-1 0-1.4 0.8-0.8 2.1-0.9 3.2-1 0.7-0.1 1.4-0.1 1.8-0.3 0.3-0.2 0.6-0.2 0.9 0 0.3 0.2 0.5 0.4 0.5 0.8 0.1 0.7 0.1 1.4 0.1 2.2-0.1 1.1-0.3 2.2-0.4 3.2-0.1 0.7-0.3 1.4-0.3 2.1 0 0.3 0 0.5 0 0.8 0 0.9 0 1.9-0.5 2.7C44.6 88.1 44.3 88.3 44 88.3z" fill="#ffffff" data-fill-palette-color="quaternary"></path><path d="M38.9 88.6C38.9 88.6 38.9 88.6 38.9 88.6c-0.6 0-1-0.5-1-1.1 0.1-1.8 0.4-3.4 1-4.5 0.2-0.5 0.8-0.7 1.3-0.5 0.5 0.2 0.7 0.8 0.5 1.3-0.4 0.9-0.7 2.2-0.8 3.8C39.9 88.2 39.4 88.6 38.9 88.6z" fill="#ffffff" data-fill-palette-color="quaternary"></path><path d="M34.7 88.9c-0.2 0-0.3 0-0.5-0.1-0.5-0.3-0.6-0.9-0.4-1.4 0.3-0.5 0.4-1.1 0.6-1.7 0.2-0.8 0.4-1.8 1-2.6 0.2-0.3 0.5-0.4 0.8-0.4 0.3 0 0.6 0.2 0.8 0.5l0.3 0.4c0.3 0.5 0.2 1.1-0.3 1.4-0.1 0.1-0.3 0.1-0.4 0.1-0.1 0.3-0.2 0.7-0.3 1.1-0.2 0.8-0.3 1.5-0.8 2.3C35.4 88.7 35.1 88.9 34.7 88.9z" fill="#ffffff" data-fill-palette-color="quaternary"></path><path d="M74.7 88c-0.6 0-1-0.4-1-1 0-1.6 0-3.2-0.1-4.8-0.1-3.2-0.2-6.5 0.1-9.8-1.1-0.2-2.6-0.1-4 0-0.9 0.1-1.8 0.1-2.6 0.1-3.8-0.2-7.5-0.2-11.3 0-1.1 0.1-2.3 0-3.5-0.1-1.5-0.1-3-0.1-4.3 0-0.2 0.2-0.4 0.3-0.7 0.4-0.6 0.1-0.9-0.2-1.1-0.3-0.3-0.3-0.4-0.6-0.3-1 0.1-0.4 0.4-0.7 0.8-0.8 1.8-0.4 3.8-0.3 5.7-0.2 1.2 0.1 2.3 0.1 3.3 0.1 3.8-0.2 7.6-0.2 11.5 0 0.6 0 1.5 0 2.3-0.1 1.9-0.2 4.1-0.3 5.6 0.4 0.4 0.2 0.6 0.6 0.6 1-0.3 3.4-0.2 6.9-0.1 10.3 0 1.6 0.1 3.3 0.1 4.9C75.7 87.5 75.2 88 74.7 88z" fill="#ffffff" data-fill-palette-color="quaternary"></path><path d="M75 72.5c-0.7 0-1.4 0-2.1 0-0.5 0-1-0.5-1-1s0.4-1 1-1l0.5 0c0.1 0 0.2 0 0.2 0 2.9 0.1 5.9-0.1 8.9-0.2 1 0 2-0.1 3-0.1 0.9 0 1.8-0.2 2.8-0.3 1.4-0.2 2.8-0.4 4.3-0.3 0.6 0 1 0.5 0.9 1.1 0 0.6-0.5 1-1.1 0.9-1.3-0.1-2.5 0.1-3.9 0.3-1 0.1-2 0.3-3 0.3-1 0-2 0.1-3 0.1C80.2 72.4 77.6 72.5 75 72.5z" fill="#ffffff" data-fill-palette-color="quaternary"></path><path d="M80.8 68.5c-1 0-2 0-3-0.1-1.6-0.1-3.2-0.1-4.8-0.1-1.5 0-3.1 0-4.6 0-0.5 0-0.9-0.4-0.9-0.8-0.1-0.8 0.1-1.5 0.3-2.1 0.1-0.3 0.2-0.6 0.2-0.9 0.1-1.1 0.2-2.3 0.3-3.5 0.1-1 0.1-2 0.2-2.9 0.4-3.6 0.9-7.3 1.4-10.8l0.1-0.9c0.2-1.6 0.4-3.2 0.6-4.8 0.3-2.2 0.6-4.5 1-6.8 0.1-0.8 0.3-1.6 0.5-2.3 0.2-0.6 0.3-1.1 0.4-1.7-0.4 0-0.8-0.4-0.9-0.8-0.1-0.5 0.2-1 0.7-1.2 0.1 0 0.2-0.1 0.4-0.1 0.1-0.5 0.3-1 0.8-1.3 0.5-0.3 1.1-0.1 1.4 0.3 0 0.1 0.1 0.1 0.1 0.2 1.9-0.7 3.8-1.5 5.6-2.4 0.3-0.2 0.7-0.4 1.2-0.6 1.5-0.8 3.1-1.7 4.6-1.5 0.5 0.1 0.8 0.4 0.9 0.9 0.6 5.8-0.1 11.7-0.8 17.4-0.4 3.6-0.9 7.3-1 11 0 1.2-0.1 2.3-0.1 3.5-0.1 3.7-0.2 7.5-0.5 11.2 0 0.4-0.4 0.8-0.8 0.9C83 68.4 81.9 68.5 80.8 68.5zM75 66.3c0.9 0 1.9 0 2.9 0.1 1.7 0.1 3.5 0.2 5.1 0 0.3-3.4 0.4-6.8 0.5-10.2 0-1.2 0-2.3 0.1-3.5 0.1-3.7 0.6-7.5 1-11.1 0.6-5.3 1.3-10.7 0.9-16-0.8 0.2-1.8 0.8-2.5 1.2-0.5 0.3-0.9 0.5-1.3 0.7-2.2 1-4.5 2-6.8 2.8 0 0.1 0 0.2 0 0.3-0.1 0.9-0.4 1.7-0.6 2.5-0.2 0.7-0.4 1.4-0.5 2.1-0.4 2.2-0.7 4.5-0.9 6.7-0.2 1.6-0.4 3.2-0.6 4.9l-0.1 0.9c-0.5 3.7-1.1 7.1-1.4 10.7-0.1 0.9-0.1 1.9-0.2 2.8-0.1 1.2-0.1 2.4-0.3 3.6-0.1 0.4-0.2 0.8-0.3 1.2 0 0.1-0.1 0.3-0.1 0.4 1.1 0 2.3 0 3.4 0C73.6 66.3 74.3 66.3 75 66.3z" fill="#ffffff" data-fill-palette-color="quaternary"></path><path d="M80.9 64.5c-0.7 0-1.5-0.2-2.1-0.4-0.3-0.1-0.7-0.2-1-0.2l-0.6-0.1c-1.5-0.2-3-0.5-4.3 0-0.3 0.1-0.6 0.1-0.9-0.1-0.3-0.2-0.4-0.5-0.4-0.8-0.1-1.8 0.2-3.9 0.5-5.8 0.1-0.9 0.3-1.8 0.4-2.6l0.2-2.2c0.4-3.6 0.7-7.3 1.5-10.9 0.2-0.9 0.3-1.7 0.3-2.6 0.1-0.9 0.2-1.8 0.4-2.8 0.1-0.4 0.2-0.9 0.3-1.4-0.4 0.1-0.8-0.1-1.1-0.4l-0.2-0.3c-0.3-0.4-0.2-1 0.3-1.4 0.6-0.4 1.2-0.7 1.8-1 0.2-0.2 0.5-0.4 0.8-0.3 0.4-0.1 0.7-0.3 1.1-0.4 0.4-0.2 0.9-0.3 1.3-0.5 0.1-0.1 0.3-0.2 0.5-0.3 0.9-0.5 1.9-1 2.9-0.7 0.5 0.1 1.3 0.4 1.3 1.5 0 0.1 0 0.1 0 0.2 0.2 0.7 0.2 1.6 0.1 2.5 0 0.3-0.1 0.7 0 0.9l0 0.7c0 1.5 0.1 3 0 4.6-0.1 3.5-0.4 7.1-0.8 10.5-0.4 4.3-0.9 8.8-0.8 13.2 0 0.5-0.3 0.9-0.8 1C81.5 64.4 81.2 64.5 80.9 64.5zM74.6 61.5c1 0 2 0.2 2.9 0.3l0.6 0.1c0.3 0.1 0.7 0.1 1.1 0.2 0.4 0.1 0.8 0.2 1.2 0.3 0-4.2 0.4-8.3 0.8-12.4 0.3-3.4 0.7-7 0.8-10.4 0-1.5 0-3 0-4.5l0-0.7c0-0.3 0-0.7 0.1-1.1 0-0.6 0.1-1.4 0-1.7 0-0.1-0.1-0.3-0.1-0.4-0.3 0.1-1 0.4-1.3 0.6-0.3 0.1-0.5 0.3-0.7 0.4-0.4 0.2-0.9 0.4-1.4 0.5-0.3 0.1-0.6 0.2-0.9 0.4-0.1 0.7-0.3 1.3-0.5 1.9-0.1 0.5-0.3 1-0.4 1.5-0.2 0.8-0.2 1.7-0.3 2.6-0.1 0.9-0.2 1.9-0.4 2.9-0.7 3.5-1.1 7.2-1.4 10.7l-0.2 2.2c-0.1 0.8-0.2 1.7-0.4 2.7-0.2 1.4-0.5 2.9-0.5 4.2C73.9 61.5 74.3 61.5 74.6 61.5z" fill="#ffffff" data-fill-palette-color="quaternary"></path><path d="M85.1 66.5c-0.4 0-0.7-0.2-0.9-0.5-0.3-0.5-0.1-1.1 0.4-1.4 0.6-0.3 1-0.5 1.4-0.6 0.1 0 0.3-0.1 0.4-0.1 0 0 0.1-0.1 0.1-0.7 0.3-2.5 0.3-4.9 0.3-7.5l0-1.3c0-5.2 0.5-10.5 1-15.6 0.2-2 0.4-4 0.6-6l0-0.1c0.3-3.1 0.1-4.5 0-5.1-0.4 0.3-0.9 0.2-1.3-0.1-0.4-0.4-0.4-1 0-1.4 0.9-0.9 1.6-0.8 2.1-0.6 0.9 0.4 1.7 1.6 1.2 7.4C90.2 35 90 37 89.8 39c-0.5 5.1-1 10.3-1 15.4l0 1.3c0 2.5 0 5.2-0.3 7.8-0.2 1.7-0.7 2.2-1.9 2.5-0.3 0.1-0.6 0.2-1 0.4C85.4 66.5 85.3 66.5 85.1 66.5z" fill="#ffffff" data-fill-palette-color="quaternary"></path><path d="M88.9 62.6c-0.5 0-1-0.1-1.6-0.4-0.5-0.2-0.7-0.9-0.4-1.3 0.2-0.5 0.9-0.7 1.3-0.4 0 0 0.1 0 0.1 0 0.1-1.7 0.2-3.4 0.2-5.1 0.1-2.5 0.1-5.1 0.5-7.6 0.1-0.8 0.2-1.6 0.4-2.4 0.4-2.7 0.9-5.5 0.7-7.9C90 36.2 90 36.1 88.7 36c-0.3 0-0.6-0.2-0.8-0.4-0.4-0.6-0.2-1.1-0.1-1.3 0.1-0.2 0.5-0.6 1.3-0.5 0.3 0 0.5 0.1 0.6 0.3 1.8 0.3 2.2 1.5 2.4 3.2 0.2 2.6-0.3 5.7-0.7 8.3-0.1 0.8-0.3 1.6-0.4 2.4-0.3 2.4-0.4 5-0.5 7.4-0.1 2.1-0.1 4.2-0.3 6.3 0 0.5-0.4 0.8-0.8 0.9C89.2 62.6 89.1 62.6 88.9 62.6zM89 34.9l-0.1 0.9c0 0 0 0 0 0L89 34.9 89 34.9z" fill="#ffffff" data-fill-palette-color="quaternary"></path><path d="M66.3 73.1c-0.4 0-0.8-0.3-1-0.7-0.2-0.5 0.1-1.1 0.7-1.2 0.7-0.2 1.6-0.2 2.7-0.3 1.7-0.1 4.2-0.2 4.5-1.1 0.2-0.5-0.4-1.1-0.6-1.2-1.7-0.8-4.7 0-9 2.4-0.5 0.3-1.1 0.1-1.4-0.4-0.3-0.5-0.1-1.1 0.4-1.4 3.2-1.8 7.8-4 10.9-2.4 1 0.5 2.2 2.1 1.6 3.7-0.8 2.2-3.9 2.3-6.3 2.4-0.9 0-1.7 0.1-2.2 0.2C66.5 73.1 66.4 73.1 66.3 73.1z" fill="#ffffff" data-fill-palette-color="quaternary"></path><path d="M52.3 72.8c-0.5 0-1-0.4-1-1-0.1-2.1 0.3-2.9 2.6-3.4 1.9-0.4 3.4-0.6 5.1-0.6 0.9 0 1.7-0.2 2.6-0.4 0.9-0.2 1.9-0.4 2.9-0.4 0.5 0 1 0.4 1 1l0 0.5c0 0.6-0.4 1-1 1-0.4 0-0.7-0.2-0.9-0.4-0.5 0.1-1.1 0.2-1.6 0.3-1 0.2-2 0.4-3 0.4-1.5 0-3 0.2-4.7 0.5-0.7 0.1-0.9 0.2-1 0.3-0.1 0.1 0 0.9 0 1.1C53.3 72.3 52.9 72.8 52.3 72.8 52.4 72.8 52.3 72.8 52.3 72.8z" fill="#ffffff" data-fill-palette-color="quaternary"></path><path d="M50 39.8c-0.2 0-0.4 0-0.5-0.1-0.5-0.3-0.8-0.7-1-1-0.4 0.6-1.1 1.2-2.1 1.1-0.4 0-0.7-0.3-0.8-0.6-0.3-0.8-0.3-1.3-0.3-1.8 0-0.3 0-0.5 0-0.8-0.1-0.5 0.3-1.1 0.8-1.2 0.5-0.1 1.1 0.3 1.2 0.8 0.1 0.3 0.1 0.6 0.1 0.8 0.1-0.2 0.3-0.4 0.4-0.5 0.3-0.4 0.9-0.5 1.3-0.2 0.4 0.3 0.7 0.6 0.9 0.9 0-0.1 0-0.1 0-0.2-0.1-0.5 0.2-0.9 0.6-1.1 0.4-0.2 0.9-0.1 1.2 0.3 0.4 0.5 1 1 1.2 1 0.2 0 0.4-0.1 0.4-0.2 0-0.1 0-0.2-0.1-0.2-0.4-0.4-0.3-1 0.1-1.4 0.4-0.4 1-0.3 1.4 0.1 0.7 0.7 0.8 1.7 0.4 2.5-0.4 0.9-1.4 1.4-2.4 1.2-0.3 0-0.7-0.2-1-0.4-0.2 0.5-0.6 0.8-1.1 1.1C50.3 39.8 50.2 39.8 50 39.8z" fill="#ffffff" data-fill-palette-color="quaternary"></path><path d="M79.2 71.4c-0.8 0-1.5 0-2.3-0.1-0.6 0-1.1 0-1.7-0.1-0.6 0-1-0.5-1-1 0-0.6 0.4-1 1-1 0.6 0 1.2 0 1.8 0.1 1 0 1.9 0.1 2.9 0.1 0-0.1-0.1-0.2-0.1-0.2-0.1-0.3-0.3-0.8-0.5-0.9-0.6 0-1-0.5-0.9-1.1 0-0.6 0.5-1 1.1-0.9 1.3 0.1 1.8 1.3 2.2 2.1 0.2 0.4 0.4 0.9 0.6 1 0.4 0.2 0.5 0.6 0.5 1-0.1 0.4-0.4 0.7-0.8 0.8C81 71.4 80.1 71.4 79.2 71.4z" fill="#ffffff" data-fill-palette-color="quaternary"></path><path d="M15.6 83.3c-0.7 0-1.4-0.1-2.1-0.6-0.2-0.2-0.4-0.5-0.4-0.8 0-0.5 0.1-1 0.2-1.4 0.1-0.4 0.2-0.8 0.1-1.2-0.1-0.5 0.4-1 0.9-1.1 0.6-0.1 1 0.4 1.1 0.9 0.1 0.7-0.1 1.3-0.2 1.8 0 0.1 0 0.2-0.1 0.3 0.2 0 0.5 0 0.7 0l0.1 0c1.5 0 3.1-0.3 4.6-0.6 1-0.2 2-0.3 3-0.5 2.7-0.3 5.6-0.5 8.7-0.5 0 0 0 0 0 0 0.5 0 1 0.4 1 1 0 0.6-0.4 1-1 1-3 0-5.8 0.2-8.5 0.5C23 82.3 22 82.5 21 82.7c-1.6 0.3-3.3 0.6-4.9 0.6l-0.1 0C15.9 83.3 15.7 83.3 15.6 83.3z" fill="#ffffff" data-fill-palette-color="quaternary"></path><path d="M27.3 88c0 0-0.1 0-0.1 0-0.5-0.1-0.9-0.6-0.9-1.1l0.1-0.6c0.1-0.7 0.2-1.3 0.2-2 0-0.6 0.4-1 1-1 0.6 0 1 0.5 1 1 0 0.8-0.1 1.5-0.2 2.3l-0.1 0.5C28.2 87.6 27.8 88 27.3 88z" fill="#ffffff" data-fill-palette-color="quaternary"></path><path d="M42.3 69.6c-0.3 0-0.5 0-0.7-0.1-0.3-0.1-0.6-0.4-0.6-0.7-0.1-0.2-0.3-0.5-0.4-0.6 0 0-0.1-0.1-0.1-0.1-0.7-0.8-1.6-1.5-2.5-2.2-0.7-0.6-1.5-1.1-2.1-1.8l-0.7-0.7c-1.3-1.3-2.8-2.7-3.8-4.3-0.3-0.5-0.2-1.1 0.3-1.4 0.5-0.3 1.1-0.2 1.4 0.3 0.9 1.4 2.3 2.8 3.6 4l0.7 0.7c0.6 0.6 1.2 1.1 2 1.6 1 0.8 2 1.6 2.8 2.6 0 0 0 0 0 0 0 0.1 0.1 0.1 0.1 0.2l0 0.1c0.2 0.2 0.3 0.4 0.4 0.6 0.5-0.1 1.6-0.6 4-2.4 0.2-0.1 0.4-0.3 0.5-0.4 0.5-0.3 1-0.8 1.5-1.2 1.2-1 2.6-2.2 4-2.7-0.2-0.9-0.9-2.3-1.3-3.1-0.2-0.4-0.4-0.7-0.5-1-0.1-0.2-0.1-0.5 0-0.8 0.1-0.3 0.3-0.5 0.5-0.6 0.4-0.2 0.8-0.2 1.3 0 0.5 0.2 0.8 0.8 0.6 1.3 0 0.1 0 0.1-0.1 0.2 0 0 0 0 0 0 0.9 1.6 1.9 3.5 1.5 5-0.1 0.4-0.4 0.7-0.8 0.7-1.2 0.3-2.6 1.5-3.9 2.5-0.6 0.5-1.1 0.9-1.6 1.3-0.1 0.1-0.3 0.2-0.5 0.3C45.8 68.2 43.8 69.6 42.3 69.6z" fill="#ffffff" data-fill-palette-color="quaternary"></path><path d="M33.6 51.2c-0.2 0-0.4 0-0.5-0.1-1.2-0.7-2.4-1.9-3.1-2.8-0.2-0.3-0.4-0.5-0.5-0.8-0.1-0.1-0.1-0.2-0.2-0.3-0.1 0.1-0.2 0.3-0.4 0.3-0.5 0.3-1.1 0.2-1.4-0.3-0.3-0.4-0.2-1 0.2-1.3-0.2-0.4-0.1-0.8 0.2-1.1 0.2-0.2 0.4-0.3 0.6-0.3 0.6-1.3 1.5-2.8 3.1-2.7 0.7 0 1.2 0.5 2 1.2 0.1 0.1 0.3 0.3 0.4 0.3l0.5 0.3c0.7 0.5 1.4 1 2.1 1.4 0.2 0.1 0.4 0.3 0.5 0.6 0.1 0.3 0 0.6-0.1 0.8-0.9 1.5-1.7 3-2.4 4.3-0.1 0.2-0.3 0.4-0.6 0.5C33.8 51.2 33.7 51.2 33.6 51.2zM30.4 45.3c0.4 0.4 0.6 0.8 0.8 1.1 0.1 0.2 0.2 0.4 0.4 0.6 0.4 0.5 1 1.2 1.7 1.7 0.4-0.8 0.9-1.7 1.4-2.5-0.5-0.3-1-0.7-1.5-1l-0.5-0.3c-0.1-0.1-0.3-0.3-0.5-0.5-0.2-0.2-0.6-0.5-0.8-0.6C31.1 43.8 30.7 44.7 30.4 45.3z" fill="#ffffff" data-fill-palette-color="quaternary"></path></svg></g></svg></g></svg></g></svg></g></svg></g></svg><rect width="342.85155851775386" height="342.85155851775386" fill="none" stroke="none" visibility="hidden"></rect></g></svg></g></svg>